<?xml version="1.0" standalone="no"?>
<!DOCTYPE svg PUBLIC "-//W3C//DTD SVG 20010904//EN"
 "http://www.w3.org/TR/2001/REC-SVG-20010904/DTD/svg10.dtd">
<svg version="1.0" xmlns="http://www.w3.org/2000/svg"
 width="349.000000pt" height="349.000000pt" viewBox="0 0 349.000000 349.000000"
 preserveAspectRatio="xMidYMid meet">
<metadata>
Created by potrace 1.14, written by Peter Selinger 2001-2017
</metadata>
<g transform="translate(0.000000,349.000000) scale(0.100000,-0.100000)"
fill="#000000" stroke="none">
<path d="M1697 3484 c-1 -1 -38 -5 -82 -8 -44 -3 -95 -8 -112 -11 -88 -13
-137 -22 -173 -32 -14 -3 -29 -7 -35 -8 -5 -2 -41 -13 -80 -26 -38 -13 -73
-22 -77 -21 -5 1 -8 -2 -8 -8 0 -5 -7 -10 -15 -10 -19 0 -208 -90 -217 -104
-4 -6 -8 -8 -8 -3 0 4 -41 -21 -91 -55 -51 -35 -98 -67 -107 -73 -26 -18 -95
-78 -149 -131 -29 -28 -55 -49 -58 -46 -3 3 -5 1 -5 -4 0 -6 -10 -21 -22 -34
-30 -32 -79 -91 -100 -121 -65 -90 -78 -110 -78 -119 0 -5 -4 -10 -8 -10 -5 0
-17 -18 -27 -40 -10 -22 -23 -40 -28 -40 -6 0 -7 -3 -4 -6 4 -4 -2 -19 -12
-33 -10 -14 -20 -30 -21 -36 -2 -5 -9 -23 -16 -40 -7 -16 -13 -34 -14 -40 -1
-5 -5 -14 -10 -20 -10 -13 -35 -90 -29 -91 2 0 -1 -7 -7 -15 -15 -17 -72 -243
-80 -313 -3 -28 -7 -73 -9 -101 -2 -27 -4 -52 -5 -55 -5 -14 -1 -152 4 -157 3
-3 1 -12 -5 -20 -6 -7 -8 -13 -3 -13 5 0 9 -17 10 -38 1 -52 16 -149 34 -232
6 -25 12 -54 15 -65 7 -35 66 -208 81 -237 8 -15 13 -28 10 -28 -4 0 16 -36
110 -208 14 -24 31 -50 39 -58 8 -8 24 -32 36 -54 13 -22 26 -40 31 -40 4 0 8
-5 8 -12 0 -6 17 -29 38 -51 63 -67 182 -186 182 -182 0 2 10 -6 23 -18 54
-52 196 -157 212 -157 2 0 27 -13 53 -30 27 -16 57 -30 66 -30 9 0 16 -4 16
-10 0 -5 8 -10 19 -10 10 0 24 -7 31 -15 6 -8 15 -14 18 -13 4 1 14 -2 22 -5
26 -11 135 -51 143 -53 4 -1 10 -3 15 -4 4 -1 11 -2 15 -1 4 1 16 -3 26 -8 18
-10 66 -22 106 -26 11 -1 27 -5 35 -8 21 -9 69 -18 105 -20 17 -1 35 -4 40 -7
6 -3 29 -5 53 -5 24 1 42 -3 42 -9 0 -7 3 -8 8 -1 9 12 82 15 82 3 0 -5 8 -4
18 1 13 7 23 6 30 -1 9 -9 12 -9 12 -1 0 13 18 12 39 -1 10 -7 12 -6 6 4 -6
10 -4 12 8 7 10 -3 17 -2 17 3 0 5 12 5 29 0 16 -4 32 -5 35 -2 4 3 14 6 24 7
50 5 115 17 136 25 13 5 27 6 32 2 4 -4 4 2 0 12 -5 15 -4 17 8 7 16 -14 49
-4 39 13 -4 6 1 5 10 -3 11 -9 17 -10 17 -2 0 6 3 10 8 9 8 -1 39 9 64 23 24
12 37 11 18 -2 -13 -9 -13 -10 0 -5 8 3 23 9 33 12 9 4 17 11 17 18 0 7 4 6 9
-2 7 -11 10 -11 22 0 13 12 29 17 67 20 6 1 12 5 12 9 0 4 14 10 30 14 17 4
30 11 30 16 0 6 5 7 10 4 6 -3 10 -1 10 5 0 6 5 8 10 5 6 -3 10 -1 10 5 0 6 4
9 9 5 5 -3 16 2 24 10 9 8 20 15 26 15 6 0 11 5 11 11 0 5 4 8 9 5 5 -3 14 1
21 9 7 8 19 15 26 15 8 0 14 5 14 10 0 6 6 10 13 10 7 0 24 11 39 24 14 14 28
22 31 20 3 -3 10 4 17 15 6 12 20 21 31 21 11 0 18 4 15 8 -2 4 9 17 25 27 16
11 29 23 29 28 0 4 7 7 15 7 8 0 15 8 15 17 0 9 3 14 6 10 9 -9 54 35 47 46
-3 6 -1 7 4 4 6 -4 25 11 42 32 18 22 44 52 59 68 48 52 72 83 72 93 0 6 5 10
10 10 6 0 10 4 10 10 0 5 7 18 15 27 8 10 16 23 17 28 1 6 9 18 18 27 16 17
60 98 62 115 1 4 8 14 15 21 7 7 13 22 13 33 0 10 5 19 11 19 5 0 7 4 4 10 -3
5 -1 10 4 10 6 0 11 9 11 19 0 11 5 23 10 26 6 4 8 11 5 16 -4 5 -1 9 5 9 6 0
9 4 6 8 -3 5 2 21 10 37 8 16 13 34 10 41 -3 7 1 18 9 24 7 6 14 19 14 28 3
46 6 62 14 62 5 0 6 9 2 19 -3 11 -1 22 5 26 6 4 9 13 6 21 -3 8 -1 14 3 14 5
0 8 11 6 25 -1 14 1 25 5 25 7 0 7 -1 12 85 2 34 7 66 11 72 4 6 1 14 -5 16
-7 3 -8 6 -2 6 6 1 9 24 8 61 -1 33 1 58 5 56 4 -3 7 4 7 14 0 10 -6 16 -13
13 -9 -4 -11 0 -7 11 3 9 11 13 18 9 7 -4 7 -1 -1 9 -7 8 -10 18 -6 22 4 4 1
11 -7 16 -13 9 -13 10 0 10 13 0 13 1 0 10 -11 7 -11 10 -2 10 8 0 10 5 6 12
-4 7 -9 24 -10 37 -3 21 -1 23 7 11 9 -12 9 -11 4 5 -4 11 -9 35 -11 54 -2 19
-9 38 -15 42 -8 5 -7 8 2 12 12 5 12 7 0 15 -10 7 -10 11 -1 14 9 3 8 9 -4 21
-13 12 -14 17 -4 17 10 0 9 3 -2 10 -10 7 -11 10 -2 10 10 0 10 6 -1 28 -8 15
-13 35 -12 45 2 9 0 17 -4 17 -4 0 -8 6 -9 13 -1 25 -13 71 -22 88 -6 10 -10
27 -10 39 0 12 -4 18 -10 15 -6 -3 -7 1 -4 9 3 9 1 16 -5 16 -6 0 -10 3 -9 8
4 15 -14 72 -23 72 -5 0 -9 6 -9 12 0 14 -60 140 -71 148 -3 3 -13 19 -22 35
-8 17 -25 40 -36 52 -12 13 -20 24 -19 25 4 4 -55 82 -65 86 -4 2 -5 8 -1 13
3 5 -3 9 -12 9 -10 0 -15 3 -11 6 3 3 -10 21 -28 40 -19 19 -32 34 -29 34 5 0
-28 32 -163 160 -18 17 -33 27 -33 24 0 -4 -8 2 -18 12 -9 10 -25 24 -33 29
-9 6 -41 26 -70 46 -89 60 -274 160 -274 149 0 -2 -11 3 -25 10 -14 8 -27 15
-30 16 -3 0 -14 4 -25 8 -69 26 -81 31 -90 33 -30 6 -142 35 -155 40 -8 3 -28
7 -45 9 -16 1 -44 5 -61 9 -18 3 -67 8 -110 11 -43 3 -82 8 -86 10 -5 3 -8 -1
-8 -8 0 -8 -3 -9 -8 -3 -5 8 -78 15 -85 9z"/>
</g>
</svg>
